<?xml version="1.0" encoding="UTF-8"?>
<svg id="Layer_1" data-name="Layer 1" xmlns="http://www.w3.org/2000/svg" viewBox="0 0 1920 1080">
  <defs>
    <style>
      .cls-1 {
        fill: #fff;
        stroke: #000;
        stroke-miterlimit: 10;
      }
    </style>
  </defs>
  <path class="cls-1" d="m871.437,461.526v118.587h9.644c-1.267-18.412-2.682-36.523-3.715-54.656-1.024-17.968-2.947-35.905-2.499-54.125,2.284,1.76,3.903,3.691,5.357,5.739,23.91,33.657,47.791,67.334,71.733,100.969.705.99,1.924,2.087,3.021,2.231,2.523.331,5.119.105,7.888.105v-118.554h-9.74c.536,8.204,1.034,16.095,1.57,23.983,1.829,26.889,3.683,53.777,5.47,80.669.086,1.29-.388,2.617-.6,3.927-.381.082-.762.165-1.143.247-1.538-2.007-3.143-3.965-4.603-6.027-23.715-33.495-47.393-67.016-71.184-100.456-.899-1.264-2.766-2.213-4.34-2.532-2.119-.431-4.392-.107-6.858-.107Zm161.886,108.56c-3.331.755-6.389,1.685-9.517,2.116-13.051,1.799-26.121,3.464-39.189,5.137-2.585.331-2.596.246-2.102,2.884h50.808v-10.137Zm.023-108.27h-51.278c-.142.42-.285.839-.427,1.259,1.107.5,2.176,1.315,3.326,1.449,6.488.76,13.026,1.136,19.487,2.061,9.594,1.374,19.138,3.098,28.892,4.704v-9.473Zm-51.038,53.793c-.746,2.518-.41,3.701,2.274,3.944,5.399.488,10.782,1.225,16.143,2.043,6.987,1.065,13.946,2.309,20.899,3.473v-9.459h-39.315Z"/>
  <path class="cls-1" d="m871.437,461.526c2.467,0,4.739-.324,6.858.107,1.574.32,3.44,1.268,4.34,2.532,23.791,33.44,47.469,66.962,71.184,100.456,1.46,2.062,3.065,4.021,4.603,6.027.381-.082.762-.165,1.143-.247.213-1.31.686-2.637.6-3.927-1.786-26.892-3.641-53.78-5.47-80.669-.536-7.888-1.034-15.778-1.57-23.983h9.74v118.554c-2.769,0-5.365.226-7.888-.105-1.098-.144-2.316-1.24-3.021-2.231-23.941-33.635-47.823-67.312-71.733-100.969-1.455-2.047-3.073-3.978-5.357-5.739-.448,18.22,1.475,36.157,2.499,54.125,1.033,18.132,2.448,36.243,3.715,54.656h-9.644v-118.587Z"/>
  <path class="cls-1" d="m1033.323,570.086v10.137h-50.808c-.494-2.638-.483-2.553,2.102-2.884,13.068-1.673,26.138-3.338,39.189-5.137,3.128-.431,6.187-1.361,9.517-2.116Z"/>
  <path class="cls-1" d="m1033.346,461.816v9.473c-9.754-1.606-19.298-3.33-28.892-4.704-6.461-.925-13-1.301-19.487-2.061-1.149-.135-2.219-.949-3.326-1.449.142-.42.285-.839.427-1.259h51.278Z"/>
  <path class="cls-1" d="m982.308,515.609h39.315v9.459c-6.952-1.164-13.912-2.407-20.899-3.473-5.361-.818-10.744-1.555-16.143-2.043-2.684-.243-3.02-1.426-2.274-3.944Z"/>
</svg>